# xmcd CD database file
#
# Track frame offsets:
#	150
#	26350
#	50846
#	69865
#	93832
#	108742
#	127419
#	150898
#	170803
#	188329
#	204644
#	224139
#
# Disc length: 3253 seconds
#
# Revision: 3
# Processed by: cddbd v1.5.2PL0 Copyright (c) Steve Scherf et al.
# Submitted via: CDex 1.70beta2
#
DISCID=ac0cb30c
DTITLE=ランティス - おねがい☆ツインズ CD BOX ～ TRIFOGLIO ～ IMAGE VOCAL COLLECTION
DYEAR=2007
DGENRE=Soundtrack
TTITLE0=いとうかなこ/From This Place
TTITLE1=YURIA/ゆれる声の…
TTITLE2=佐藤裕美/うららかsmile
TTITLE3=中原涼/わからないけどわかってる
TTITLE4=佐藤裕美/Pure Rainで伝えたい
TTITLE5=CooRie/キスの迷路
TTITLE6=ゆうまお/思い出が欲しかった
TTITLE7=いとうかなこ/恋に追いつけない
TTITLE8=YURIA/ぬけがけしないで
TTITLE9=yozuca*/RETRY
TTITLE10=中山マミ/Sugar Light
TTITLE11=KAKO/はじまりの笑顔
EXTD=YEAR: 2007
EXTT0=
EXTT1=
EXTT2=
EXTT3=
EXTT4=
EXTT5=
EXTT6=
EXTT7=
EXTT8=
EXTT9=
EXTT10=
EXTT11=
PLAYORDER=
